<svg width="406" height="427" viewBox="0 0 406 427" fill="none" xmlns="http://www.w3.org/2000/svg">
<path d="M138.667 122.699C138.667 64.0322 83.6267 26.4855 81.28 24.9922C77.7522 22.6076 73.5915 21.3333 69.3333 21.3333C65.0752 21.3333 60.9145 22.6076 57.3867 24.9922C55.04 26.6988 0 64.0322 0 122.699C0 141.087 7.30474 158.722 20.3073 171.725C33.3098 184.727 50.945 192.032 69.3333 192.032C87.7217 192.032 105.357 184.727 118.359 171.725C131.362 158.722 138.667 141.087 138.667 122.699ZM69.3333 149.365C62.2609 149.365 55.4781 146.556 50.4772 141.555C45.4762 136.554 42.6667 129.771 42.6667 122.699C44.4222 102.472 53.9872 83.7248 69.3333 70.4322C84.771 83.6529 94.3564 102.44 96 122.699C96 129.771 93.1905 136.554 88.1895 141.555C83.1885 146.556 76.4058 149.365 69.3333 149.365ZM198.613 174.326C195.086 171.941 190.925 170.667 186.667 170.667C182.409 170.667 178.248 171.941 174.72 174.326C171.093 176.886 85.3333 236.192 85.3333 325.366C85.3333 352.241 96.0095 378.015 115.013 397.019C134.017 416.023 159.791 426.699 186.667 426.699C213.542 426.699 239.316 416.023 258.32 397.019C277.324 378.015 288 352.241 288 325.366C288 234.699 202.667 176.672 198.613 174.326ZM186.667 384.032C178.962 384.032 171.334 382.515 164.216 379.566C157.098 376.618 150.631 372.297 145.183 366.849C139.735 361.401 135.414 354.934 132.466 347.816C129.517 340.698 128 333.07 128 325.366C128 276.086 166.613 236.406 186.88 218.699C206.933 235.552 245.333 274.806 245.333 325.366C245.333 333.07 243.816 340.698 240.868 347.816C237.919 354.934 233.598 361.401 228.15 366.849C222.703 372.297 216.235 376.618 209.117 379.566C202 382.515 194.371 384.032 186.667 384.032ZM331.947 3.65883C328.419 1.27427 324.258 0 320 0C315.742 0 311.581 1.27427 308.053 3.65883C305.067 5.79216 234.667 54.4322 234.667 128.032C234.667 150.664 243.657 172.369 259.66 188.372C275.663 204.375 297.368 213.366 320 213.366C342.632 213.366 364.337 204.375 380.34 188.372C396.343 172.369 405.333 150.664 405.333 128.032C405.333 53.5788 334.933 5.57883 331.947 3.65883ZM320 170.699C308.684 170.699 297.832 166.204 289.83 158.202C281.829 150.2 277.333 139.348 277.333 128.032C278.795 112.628 283.323 97.6712 290.651 84.0424C297.978 70.4136 307.957 58.3877 320 48.6722C332.088 58.3463 342.099 70.3621 349.43 83.999C356.762 97.6359 361.264 112.613 362.667 128.032C362.667 139.348 358.171 150.2 350.17 158.202C342.168 166.204 331.316 170.699 320 170.699Z" fill="white"/>
</svg>
